<?xml version="1.0" encoding="UTF-8" standalone="no" ?>
<!DOCTYPE svg PUBLIC "-//W3C//DTD SVG 1.1//EN" "http://www.w3.org/Graphics/SVG/1.1/DTD/svg11.dtd">
<svg xmlns="http://www.w3.org/2000/svg" xmlns:xlink="http://www.w3.org/1999/xlink" version="1.1" viewBox="0 0 600 480" xml:space="preserve">

<defs>
</defs>
<g transform="matrix(0.22 0 0 0.22 268.35 147.22)"  >
<polygon style="stroke: none; stroke-width: 1; stroke-dasharray: none; stroke-linecap: butt; stroke-dashoffset: 0; stroke-linejoin: miter; stroke-miterlimit: 4; fill: rgb(0,113,188); fill-rule: nonzero; opacity: 1;"  points="146.72,-103.75 -21.72,0 146.72,103.15 146.72,169.18 -146.72,1.57 146.72,-169.18 146.72,-103.75 " />
</g>
<g transform="matrix(0.22 0 0 0.22 321.07 126.97)"  >
<polygon style="stroke: none; stroke-width: 1; stroke-dasharray: none; stroke-linecap: butt; stroke-dashoffset: 0; stroke-linejoin: miter; stroke-miterlimit: 4; fill: rgb(26,74,138); fill-rule: nonzero; opacity: 1;"  points="92.91,42.07 40.33,77.12 -92.91,-11.69 -92.91,-77.12 92.91,42.07 " />
</g>
<g transform="matrix(0.22 0 0 0.22 268.35 209.29)"  >
<polygon style="stroke: none; stroke-width: 1; stroke-dasharray: none; stroke-linecap: butt; stroke-dashoffset: 0; stroke-linejoin: miter; stroke-miterlimit: 4; fill: rgb(0,113,188); fill-rule: nonzero; opacity: 1;"  points="31.45,-58.48 31.45,94.5 146.53,159.89 146.72,159.79 146.72,227.93 146.61,228 -146.72,60.29 -146.72,-228.01 -88.57,-192.75 -88.57,26.28 -25.46,62.14 -25.46,-158.09 146.72,-62.09 146.72,0.32 31.45,-58.48 " />
</g>
<g transform="matrix(0.22 0 0 0.22 332.05 199.89)"  >
<polygon style="stroke: none; stroke-width: 1; stroke-dasharray: none; stroke-linecap: butt; stroke-dashoffset: 0; stroke-linejoin: miter; stroke-miterlimit: 4; fill: rgb(26,74,138); fill-rule: nonzero; opacity: 1;"  points="142.82,-234.16 142.82,98.07 -142.82,270.65 -142.82,202.51 -31.66,137.13 -31.66,-13.91 -142.82,43.05 -142.82,-19.37 20.93,-115.37 20.93,106.22 85.28,68.37 85.28,-198.91 -142.82,-70.26 -142.82,-136.29 91.77,-270.65 142.82,-234.16 " />
</g>
<g transform="matrix(1 0 0 1 306.85 299.27)" style=""  >
		<text xml:space="preserve" font-family="PangMenZhengDao" font-size="35" font-style="normal" font-weight="normal" style="stroke: none; stroke-width: 1; stroke-dasharray: none; stroke-linecap: butt; stroke-dashoffset: 0; stroke-linejoin: miter; stroke-miterlimit: 4; fill: rgb(50,50,50); fill-rule: nonzero; opacity: 1; white-space: pre;" ><tspan x="-144.62" y="10.99" >MENSA CAPITAL</tspan></text>
</g>
<g transform="matrix(1 0 0 1 300.5 326.41)" style=""  >
		<text xml:space="preserve" font-family="WenCang-Regular" font-size="14" font-style="normal" font-weight="normal" style="stroke: none; stroke-width: 1; stroke-dasharray: none; stroke-linecap: butt; stroke-dashoffset: 0; stroke-linejoin: miter; stroke-miterlimit: 4; fill: rgb(50,50,50); fill-rule: nonzero; opacity: 1; white-space: pre;" ></text>
</g>
</svg>