<svg width="279" height="208" viewBox="0 0 279 208" fill="none" xmlns="http://www.w3.org/2000/svg">
<path d="M138.628 14.395L101.572 37.22L138.628 59.913V74.4396L74.0716 37.5654L138.628 0.000396729V14.395Z" fill="#0071BC"/>
<path d="M179.51 26.2254L167.943 33.9364L138.63 14.3982V0.00360107L179.51 26.2254Z" fill="#1A4A8A"/>
<path d="M113.269 86.4244V120.08L138.587 134.466L138.628 134.444V149.435L138.604 149.45L74.0716 112.554V49.1278L86.8646 56.885V105.072L100.749 112.961V64.5102L138.628 85.6302V99.3604L113.269 86.4244Z" fill="#0071BC"/>
<path d="M201.47 38.3748V111.465L138.63 149.433V134.442L163.085 120.059V86.8298L138.63 99.361V85.6286L174.655 64.5086V113.258L188.812 104.931V46.1298L138.63 74.4328V59.9062L190.239 30.347L201.47 38.3748Z" fill="#1A4A8A"/>
<path d="M3.31237 173.805H6.99134L15.6419 194.935H15.9402L24.5908 173.805H28.2698V199.26H25.3862V179.92H25.1377L17.1831 199.26H14.399L6.44447 179.92H6.19589V199.26H3.31237V173.805ZM34.4501 199.26V173.805H49.8123V176.54H37.5324V185.141H49.0168V187.875H37.5324V196.526H50.0111V199.26H34.4501ZM75.5527 173.805V199.26H72.5697L58.699 179.274H58.4504V199.26H55.368V173.805H58.351L72.2714 193.841H72.52V173.805H75.5527ZM95.641 180.169C95.4919 178.91 94.887 177.932 93.8264 177.236C92.7658 176.54 91.4649 176.192 89.9237 176.192C88.7968 176.192 87.8108 176.374 86.9656 176.739C86.1287 177.103 85.4741 177.605 85.0018 178.243C84.5378 178.881 84.3058 179.606 84.3058 180.418C84.3058 181.097 84.4674 181.681 84.7905 182.17C85.122 182.651 85.5446 183.053 86.0583 183.376C86.572 183.691 87.1106 183.952 87.6741 184.159C88.2375 184.358 88.7554 184.519 89.2277 184.644L91.8129 185.34C92.4758 185.514 93.2132 185.754 94.0253 186.06C94.8456 186.367 95.6286 186.785 96.3743 187.316C97.1284 187.838 97.7498 188.509 98.2387 189.329C98.7276 190.15 98.972 191.156 98.972 192.349C98.972 193.725 98.6116 194.968 97.8907 196.078C97.1781 197.188 96.134 198.071 94.7586 198.726C93.3914 199.38 91.73 199.707 89.7745 199.707C87.9516 199.707 86.3732 199.413 85.0391 198.825C83.7133 198.237 82.6693 197.416 81.907 196.364C81.153 195.312 80.7263 194.09 80.6268 192.697H83.8086C83.8915 193.659 84.2147 194.454 84.7781 195.084C85.3498 195.705 86.0707 196.169 86.9407 196.476C87.8191 196.774 88.7637 196.923 89.7745 196.923C90.9512 196.923 92.0076 196.733 92.9439 196.352C93.8803 195.962 94.6218 195.424 95.1687 194.736C95.7156 194.04 95.989 193.228 95.989 192.3C95.989 191.455 95.7529 190.767 95.2806 190.237C94.8083 189.706 94.1868 189.275 93.4162 188.944C92.6456 188.612 91.8129 188.322 90.918 188.074L87.7859 187.179C85.7973 186.607 84.2229 185.791 83.0629 184.731C81.9029 183.67 81.3228 182.282 81.3228 180.567C81.3228 179.142 81.7081 177.899 82.4787 176.838C83.2576 175.769 84.3017 174.941 85.6108 174.352C86.9283 173.756 88.3991 173.457 90.0231 173.457C91.6638 173.457 93.1221 173.752 94.3981 174.34C95.6742 174.92 96.6851 175.715 97.4308 176.726C98.1848 177.737 98.5826 178.885 98.624 180.169H95.641ZM105.084 199.26H101.852L111.199 173.805H114.381L123.727 199.26H120.496L112.889 177.832H112.69L105.084 199.26ZM106.277 189.317H119.303V192.051H106.277V189.317ZM158.019 181.76H154.937C154.754 180.873 154.435 180.094 153.98 179.423C153.532 178.752 152.985 178.189 152.339 177.733C151.701 177.269 150.992 176.921 150.214 176.689C149.435 176.457 148.623 176.341 147.777 176.341C146.236 176.341 144.84 176.73 143.589 177.509C142.346 178.288 141.356 179.436 140.618 180.952C139.889 182.468 139.525 184.329 139.525 186.533C139.525 188.737 139.889 190.597 140.618 192.113C141.356 193.63 142.346 194.777 143.589 195.556C144.84 196.335 146.236 196.724 147.777 196.724C148.623 196.724 149.435 196.608 150.214 196.376C150.992 196.144 151.701 195.801 152.339 195.345C152.985 194.881 153.532 194.313 153.98 193.642C154.435 192.963 154.754 192.184 154.937 191.305H158.019C157.787 192.606 157.364 193.771 156.751 194.798C156.138 195.825 155.376 196.7 154.464 197.42C153.553 198.133 152.529 198.676 151.394 199.049C150.267 199.422 149.062 199.608 147.777 199.608C145.607 199.608 143.676 199.078 141.986 198.017C140.295 196.956 138.965 195.448 137.996 193.493C137.026 191.537 136.542 189.217 136.542 186.533C136.542 183.848 137.026 181.528 137.996 179.572C138.965 177.617 140.295 176.109 141.986 175.048C143.676 173.988 145.607 173.457 147.777 173.457C149.062 173.457 150.267 173.644 151.394 174.017C152.529 174.39 153.553 174.936 154.464 175.657C155.376 176.37 156.138 177.24 156.751 178.267C157.364 179.287 157.787 180.451 158.019 181.76ZM164.044 199.26H160.812L170.159 173.805H173.341L182.687 199.26H179.456L171.849 177.832H171.65L164.044 199.26ZM165.237 189.317H178.263V192.051H165.237V189.317ZM186.652 199.26V173.805H195.253C197.25 173.805 198.882 174.166 200.15 174.887C201.426 175.599 202.371 176.565 202.984 177.783C203.597 179.001 203.904 180.36 203.904 181.859C203.904 183.359 203.597 184.722 202.984 185.949C202.379 187.175 201.443 188.153 200.175 188.882C198.907 189.603 197.283 189.963 195.303 189.963H189.138V187.229H195.203C196.571 187.229 197.668 186.993 198.497 186.52C199.326 186.048 199.926 185.41 200.299 184.606C200.68 183.794 200.871 182.879 200.871 181.859C200.871 180.84 200.68 179.929 200.299 179.125C199.926 178.321 199.321 177.692 198.485 177.236C197.648 176.772 196.537 176.54 195.154 176.54H189.735V199.26H186.652ZM211.951 173.805V199.26H208.869V173.805H211.951ZM216.74 176.54V173.805H235.831V176.54H227.826V199.26H224.744V176.54H216.74ZM238.658 199.26H235.427L244.773 173.805H247.955L257.302 199.26H254.07L246.464 177.832H246.265L238.658 199.26ZM239.851 189.317H252.877V192.051H239.851V189.317ZM261.266 199.26V173.805H264.349V196.526H276.181V199.26H261.266Z" fill="#323232"/>
</svg>
